<svg xmlns="http://www.w3.org/2000/svg" viewBox="0 0 24 24"><defs><style>.a{fill:none;stroke:#000;stroke-linecap:round;stroke-linejoin:round}</style></defs><title>computer-chip</title><rect width="15" height="15" x="4.5" y="4.5" class="a" rx="1" ry="1"/><line x1="12" x2="12" y1=".5" y2="4.5" class="a"/><line x1="7.5" x2="7.5" y1=".5" y2="4.5" class="a"/><line x1="16.5" x2="16.5" y1=".5" y2="4.5" class="a"/><line x1=".5" x2="4.5" y1="12" y2="12" class="a"/><line x1=".5" x2="4.5" y1="16.5" y2="16.5" class="a"/><line x1=".5" x2="4.5" y1="7.5" y2="7.5" class="a"/><line x1="12" x2="12" y1="23.5" y2="19.5" class="a"/><line x1="16.5" x2="16.5" y1="23.5" y2="19.5" class="a"/><line x1="7.5" x2="7.5" y1="23.5" y2="19.5" class="a"/><line x1="23.5" x2="19.5" y1="12" y2="12" class="a"/><line x1="23.5" x2="19.5" y1="7.5" y2="7.5" class="a"/><line x1="23.5" x2="19.5" y1="16.5" y2="16.5" class="a"/><rect width="11" height="11" x="6.5" y="6.5" class="a" rx="2" ry="2"/><line x1="9.5" x2="13.5" y1="9.5" y2="9.5" class="a"/><line x1="9.5" x2="11.5" y1="11.5" y2="11.5" class="a"/><line x1="12.5" x2="14.5" y1="14.5" y2="14.5" class="a"/></svg>